<?xml version="1.0" standalone="no"?>
<!DOCTYPE svg PUBLIC "-//W3C//DTD SVG 20010904//EN"
 "http://www.w3.org/TR/2001/REC-SVG-20010904/DTD/svg10.dtd">
<svg version="1.0" xmlns="http://www.w3.org/2000/svg"
 width="394.000000pt" height="394.000000pt" viewBox="0 0 394.000000 394.000000"
 preserveAspectRatio="xMidYMid meet">
<metadata>
Created by potrace 1.14, written by Peter Selinger 2001-2017
</metadata>
<g transform="translate(0.000000,394.000000) scale(0.100000,-0.100000)"
fill="#000000" stroke="none">
<path d="M0 3921 c0 -10 9 -40 21 -66 17 -39 20 -61 16 -117 -3 -43 -11 -76
-21 -87 -16 -17 -22 -51 -10 -51 4 0 35 20 70 45 52 37 70 45 106 44 24 0 52
-5 63 -10 17 -8 16 -9 -7 -6 -15 2 -25 1 -23 -3 2 -4 -12 -7 -32 -8 -20 -1
-39 -6 -42 -10 -8 -13 -80 -48 -114 -56 -19 -4 -27 -13 -27 -27 0 -20 1 -21
25 -5 13 9 30 16 37 16 9 0 9 -3 -2 -10 -8 -5 -12 -10 -8 -10 4 0 28 15 52 34
47 35 119 64 171 67 59 3 77 -1 72 -14 -3 -7 1 -26 8 -42 9 -20 14 -24 14 -12
1 9 7 17 14 17 7 0 8 3 2 8 -5 4 -11 15 -13 25 -5 30 23 19 56 -22 27 -33 32
-49 32 -90 0 -28 -5 -51 -10 -51 -7 0 -6 -6 1 -17 17 -28 -12 -131 -61 -218
-80 -139 -299 -345 -367 -345 -22 0 -23 -3 -21 -80 2 -74 4 -80 22 -74 16 5
18 2 14 -20 -4 -21 -1 -26 15 -26 16 0 18 3 9 12 -7 7 -12 25 -12 41 0 26 -1
27 -16 13 -18 -19 -24 -20 -24 -6 0 6 9 18 20 27 11 10 20 23 20 29 0 6 11 19
25 28 27 17 33 10 12 -14 -6 -8 3 -2 21 14 17 17 32 31 32 32 0 1 -10 0 -22
-4 -20 -5 -19 -2 7 20 17 14 52 41 78 61 27 21 45 37 40 37 -4 0 10 12 33 28
22 15 49 36 60 47 85 85 207 190 219 189 7 -1 11 4 9 11 -3 7 11 26 31 41 28
21 41 25 53 17 24 -14 130 -141 147 -176 14 -29 14 -33 -9 -66 -13 -20 -55
-69 -93 -110 l-69 -74 -47 34 c-26 18 -50 41 -53 51 -4 15 -12 18 -35 13 -25
-6 -28 -4 -23 12 3 10 -4 3 -16 -14 -20 -30 -36 -37 -77 -36 -7 1 -13 -5 -13
-11 0 -7 -37 -25 -82 -41 -45 -16 -77 -30 -71 -32 6 -2 34 5 62 16 28 10 63
18 78 16 15 -1 35 2 44 8 15 9 22 6 39 -16 12 -15 27 -27 33 -27 7 1 3 9 -9
18 -21 18 -19 52 5 66 17 11 84 -12 116 -39 30 -25 30 -25 10 -41 -12 -9 -33
-14 -52 -12 -18 2 -33 0 -33 -4 0 -4 14 -8 30 -8 17 0 30 -4 30 -10 0 -5 -7
-6 -17 -3 -10 4 -14 2 -10 -4 13 -21 -197 -154 -238 -151 -19 2 -89 -41 -81
-49 2 -3 26 0 52 4 27 5 60 5 74 1 14 -4 45 -14 70 -21 41 -12 45 -16 43 -43
l-2 -29 10 27 10 27 47 -16 c26 -8 61 -21 77 -28 17 -7 46 -19 65 -26 76 -27
150 -70 150 -85 0 -12 3 -14 13 -6 17 14 82 -22 71 -40 -5 -7 0 -9 14 -6 12 4
22 3 22 0 0 -4 20 -15 44 -25 64 -26 71 -38 51 -82 -21 -43 -21 -43 -84 -55
-63 -12 -110 2 -112 33 -1 18 -2 19 -6 4 -5 -19 -23 -17 -76 10 -16 8 -31 13
-33 10 -2 -2 19 -14 46 -27 53 -25 64 -46 28 -53 -16 -3 -13 -5 10 -6 20 0 31
3 27 9 -3 6 1 10 10 10 9 0 14 -3 12 -7 -3 -5 9 -9 26 -9 18 -1 48 -4 67 -8
26 -5 31 -4 20 4 -13 9 -13 11 0 20 36 23 36 5 -1 -67 -21 -42 -39 -82 -39
-89 0 -9 21 -11 81 -7 75 4 81 3 75 -14 -3 -10 -10 -39 -15 -64 -6 -26 -16
-59 -23 -75 -6 -16 -12 -33 -13 -39 -4 -32 -18 -90 -26 -104 -5 -9 -18 -53
-29 -99 -11 -45 -31 -111 -46 -145 -14 -34 -32 -83 -40 -108 -21 -66 -90 -122
-262 -215 -72 -38 -74 -39 -88 -19 -13 18 -9 24 54 90 58 58 126 142 176 215
22 32 -67 -66 -99 -109 -18 -25 -61 -73 -94 -105 l-60 -60 -51 110 c-64 137
-93 194 -97 190 -5 -5 63 -160 103 -237 20 -37 33 -72 30 -78 -3 -5 -49 -42
-101 -82 -67 -51 -92 -75 -83 -81 9 -5 7 -7 -7 -6 -11 2 -60 -24 -109 -56 -81
-54 -90 -58 -102 -42 -10 14 -9 26 8 64 11 26 24 52 28 57 5 6 38 91 75 190
64 170 67 184 68 272 1 51 -1 93 -5 93 -5 0 -8 6 -8 14 0 8 -4 17 -9 20 -4 3
-5 -13 0 -37 13 -69 10 -129 -11 -208 -24 -91 -96 -283 -137 -364 l-30 -59
-23 44 -22 44 -14 -25 c-10 -17 -13 -71 -14 -196 l0 -173 25 0 c14 0 26 -1 26
-2 1 -2 5 -61 9 -133 l8 -130 -2 133 -2 132 67 0 66 0 97 -122 c120 -151 279
-333 326 -373 19 -16 2 5 -37 49 -40 43 -70 83 -66 89 3 5 2 7 -4 4 -8 -5
-261 294 -284 336 -13 23 -44 101 -42 107 1 3 -4 12 -12 20 -24 28 -67 122
-58 130 4 4 101 59 215 123 l206 114 73 -110 c40 -61 72 -117 72 -124 0 -6 4
-11 8 -10 4 1 28 -25 52 -58 l45 -59 -48 -96 c-27 -53 -56 -102 -65 -110 -16
-14 -75 -122 -75 -137 1 -4 14 17 29 46 l28 55 49 -3 c27 -1 112 -4 190 -5
l140 -3 -34 64 c-19 35 -32 66 -30 69 3 2 26 -3 52 -12 26 -9 49 -14 51 -12 3
2 -24 14 -58 27 l-63 22 -42 85 c-42 84 -42 85 -41 192 0 59 4 153 8 209 6 88
11 107 31 128 13 14 20 25 15 25 -5 0 4 13 20 30 16 16 25 30 21 30 -4 0 -20
-15 -37 -32 -22 -25 -29 -28 -29 -15 0 21 22 72 47 107 l17 25 -21 -19 -22
-18 8 28 c5 16 20 58 34 94 50 129 108 335 133 473 l6 37 73 0 c56 0 74 -4 79
-15 4 -10 -1 -15 -17 -15 -20 -1 -20 -2 5 -13 15 -7 46 -39 69 -72 23 -33 46
-63 52 -67 6 -3 12 -14 13 -23 4 -29 13 -45 24 -45 6 0 8 5 4 12 -4 7 -3 8 4
4 6 -4 9 -13 6 -21 -3 -8 4 -26 15 -41 12 -15 21 -33 21 -40 0 -8 7 -14 15
-14 8 0 15 -4 15 -10 0 -5 5 -10 11 -10 6 0 9 6 6 14 -4 10 0 12 16 8 17 -4
13 4 -20 39 -48 51 -116 135 -162 198 -24 34 -28 47 -19 53 10 6 7 10 -9 14
-11 3 -23 14 -26 25 -4 16 0 19 34 19 21 0 39 2 39 5 0 3 -11 28 -25 55 -14
28 -23 50 -20 50 3 0 20 -8 38 -17 18 -9 35 -16 39 -15 4 1 10 -7 13 -18 4
-11 10 -20 15 -20 5 0 12 -9 15 -20 4 -11 11 -18 16 -14 6 3 18 0 27 -8 9 -7
-7 12 -36 42 -30 30 -60 55 -68 56 -19 3 -46 25 -39 32 2 3 11 -1 20 -8 10 -8
15 -9 15 -1 0 13 36 15 45 1 3 -5 15 -6 28 -1 24 9 60 -1 83 -24 14 -13 13
-15 -5 -15 -12 0 -21 -5 -21 -11 0 -7 9 -9 24 -5 20 5 30 -3 64 -47 42 -54 88
-88 109 -80 7 3 -6 15 -28 27 -49 25 -121 106 -95 106 9 0 16 -5 16 -11 0 -8
4 -9 13 0 8 6 18 7 22 3 5 -4 5 -1 1 6 -4 7 -12 10 -17 7 -5 -4 -9 -2 -9 4 0
5 -10 11 -22 13 -32 4 -38 40 -6 38 12 -1 32 -1 43 1 11 1 -9 5 -45 8 -63 6
-65 7 -75 41 -5 19 -18 46 -27 60 -22 30 -23 19 -3 -21 9 -16 13 -34 10 -39
-3 -6 -1 -10 4 -10 6 0 11 -7 11 -16 0 -14 -10 -16 -72 -12 -83 6 -141 30
-157 65 -17 37 -15 39 50 62 33 13 59 25 57 27 -3 2 -32 -7 -66 -20 l-62 -25
-15 28 c-13 27 -12 31 32 97 25 38 57 84 71 103 23 31 26 33 34 15 6 -15 7
-13 3 7 -3 19 5 39 35 79 22 30 40 49 40 44 0 -5 5 -2 10 6 7 11 10 3 9 -30 0
-25 -3 -39 -6 -33 -3 10 -8 9 -19 -2 -16 -15 -10 -40 7 -30 5 4 9 1 9 -4 0 -6
7 -11 15 -11 11 0 15 13 16 53 0 44 2 49 12 33 7 -10 25 -32 41 -48 20 -21 33
-48 42 -91 10 -48 12 -52 9 -17 -5 42 -4 44 10 26 8 -11 13 -28 10 -37 -3 -10
-1 -20 5 -24 5 -3 10 -2 10 3 0 5 9 12 20 15 25 6 27 25 3 23 -12 0 -19 7 -21
22 -4 27 4 28 32 5 15 -13 15 -11 -3 9 -19 21 -27 25 -38 17 -9 -8 -13 -8 -13
0 0 6 -7 11 -15 11 -14 0 -20 12 -16 33 1 5 -3 6 -8 3 -9 -6 -41 30 -41 46 0
16 19 8 24 -10 4 -10 12 -19 19 -19 21 0 8 45 -14 52 -10 4 -19 12 -19 20 0 7
-8 12 -17 11 -10 0 -19 7 -21 17 -4 20 61 120 120 185 22 24 36 48 32 54 -4 6
-3 8 4 4 6 -3 21 7 34 24 13 17 33 42 45 57 l23 26 117 -119 c65 -65 120 -119
123 -119 3 0 15 -7 28 -15 27 -18 29 -35 2 -20 -13 7 -20 7 -20 1 0 -13 45
-25 59 -17 5 4 -35 50 -89 103 -61 59 -101 107 -105 124 -5 21 -11 27 -30 24
-15 -1 -33 7 -47 22 -22 23 -22 25 -5 37 9 7 17 17 17 23 0 18 23 33 35 23 9
-8 14 -3 18 17 4 16 15 39 26 52 17 23 28 25 115 29 l95 4 -6 -63 c-3 -36 -2
-60 3 -56 10 9 10 13 12 75 2 29 6 42 16 42 12 0 15 -26 14 -150 0 -105 -4
-150 -12 -150 -8 0 -8 -2 0 -8 6 -4 10 -16 8 -27 -1 -11 -6 -46 -10 -77 -7
-58 -23 -70 -25 -20 -1 21 -2 22 -6 7 -3 -11 -9 -24 -14 -30 -11 -11 -12 -28
-1 -21 5 3 9 0 10 -7 1 -7 4 -25 7 -42 l5 -30 -14 31 c-8 17 -21 36 -30 43 -8
7 0 -16 17 -51 62 -124 103 -262 87 -289 -6 -8 -10 -3 -13 17 -3 25 -4 24 -6
-8 -1 -42 -31 -118 -45 -118 -5 0 -17 6 -25 14 -21 17 -224 155 -265 180 -33
20 -47 36 -40 47 2 4 -9 10 -25 14 -16 3 -49 19 -73 34 -28 18 -45 24 -45 16
0 -7 20 -26 44 -41 25 -15 50 -35 56 -43 7 -9 20 -17 31 -19 14 -3 311 -196
335 -218 3 -2 -3 -20 -12 -39 -14 -29 -22 -35 -49 -36 -33 -1 -33 -1 -5 -8
l28 -6 -47 -97 c-26 -53 -52 -94 -57 -91 -6 3 -7 1 -3 -5 4 -6 2 -21 -4 -33
-7 -11 -9 -23 -6 -27 4 -3 63 -5 133 -3 l126 2 -7 -83 c-8 -97 -26 -208 -33
-208 -9 0 -128 113 -126 120 1 3 -7 6 -18 6 -10 0 -15 -3 -11 -7 4 -4 40 -35
81 -69 84 -72 80 -48 36 -237 -23 -102 -25 -129 -23 -289 3 -159 5 -175 18
-159 8 11 10 16 4 13 -7 -5 -11 34 -12 118 -2 87 1 124 9 124 8 0 8 5 -1 15
-9 10 -10 31 -6 68 10 79 57 267 66 262 4 -2 5 6 3 20 -3 13 3 61 13 107 10
46 17 109 16 141 -2 46 0 57 13 57 8 0 15 -6 15 -12 0 -10 2 -10 9 0 6 10 37
13 117 12 60 -1 112 -1 116 -1 3 1 -18 47 -47 104 l-54 104 57 -3 57 -3 -58 8
c-32 5 -59 10 -61 12 -1 2 -14 27 -29 56 l-27 52 37 26 c21 14 34 25 29 25 -4
0 -21 -9 -38 -21 -16 -12 -30 -20 -32 -18 -1 2 -25 48 -52 102 -45 91 -63 114
-65 85 -2 -37 -18 53 -24 140 -5 77 -4 101 6 108 7 4 14 3 17 -4 2 -7 24 -12
55 -12 l52 1 -38 20 c-32 17 -36 23 -26 35 10 12 5 12 -24 -2 -20 -10 -39 -15
-43 -12 -10 11 -12 150 -3 221 4 38 18 105 31 150 20 73 23 79 29 52 6 -26 7
-23 8 18 1 39 4 47 19 47 11 0 27 -9 37 -20 10 -11 21 -18 23 -15 3 3 -3 12
-14 20 -17 13 -15 14 34 15 28 0 52 -4 52 -10 0 -5 5 -10 11 -10 5 0 7 5 4 10
-4 7 32 10 104 9 91 0 113 -4 131 -19 11 -10 37 -21 58 -25 48 -9 182 -71 182
-84 0 -11 79 -36 87 -28 6 7 -60 52 -73 49 -6 -1 -53 18 -105 42 l-95 44 -77
157 c-42 86 -77 157 -77 158 0 2 19 1 43 0 40 -3 40 -2 14 8 -26 10 -27 12
-10 25 17 12 16 13 -9 14 -16 0 -28 -4 -28 -10 0 -28 -29 -3 -53 46 l-28 56
27 39 c14 21 35 41 45 44 11 4 19 11 19 16 0 6 -6 7 -12 4 -7 -4 -1 5 15 19
15 14 27 29 27 33 0 5 17 26 38 46 25 25 48 37 67 38 l30 1 -34 11 c-33 10
-35 10 -80 -41 -60 -68 -77 -69 -52 -1 18 46 18 50 3 47 -11 -3 -16 -12 -15
-26 2 -12 -1 -22 -6 -22 -4 0 -13 -11 -19 -25 -11 -23 -17 -25 -49 -21 l-38 5
39 -12 39 -13 -24 -20 c-14 -10 -29 -25 -33 -32 -7 -11 -4 -12 13 -3 11 7 21
10 21 8 0 -13 -23 -67 -28 -67 -13 0 -64 114 -53 118 18 6 12 22 -8 22 -41 0
-32 49 9 50 8 0 22 5 30 10 10 7 -1 8 -37 5 -39 -3 -53 0 -57 11 -4 11 -19 14
-58 12 -47 -3 -54 -6 -67 -33 -8 -16 -16 -24 -19 -17 -2 6 -8 12 -13 12 -6 0
-7 -4 -4 -10 3 -5 -1 -10 -11 -10 -11 0 -15 6 -11 20 7 26 -2 25 -37 -5 -43
-37 -67 -32 -26 5 18 17 31 30 28 30 -14 0 -75 -36 -91 -54 -10 -12 -16 -15
-12 -8 8 16 0 15 -35 -3 -17 -9 -42 -20 -57 -25 l-28 -10 22 17 c12 10 43 34
69 53 46 34 47 35 21 38 -18 2 -43 -9 -82 -39 -58 -43 -75 -46 -55 -9 6 12 9
24 7 27 -3 2 -10 -4 -16 -15 -7 -13 -18 -18 -30 -15 -14 3 -20 -2 -25 -22 -4
-14 -4 -30 -1 -35 4 -6 2 -10 -4 -10 -20 0 -21 20 -1 55 32 57 28 66 -29 64
-49 -2 -49 -2 -61 -46 -7 -23 -17 -43 -21 -43 -5 0 -8 -3 -7 -7 9 -26 -25 -6
-77 44 -59 57 -58 53 2 -19 21 -25 30 -44 26 -57 -3 -12 -1 -21 6 -21 6 0 8 8
4 18 -6 14 -4 15 9 4 14 -11 14 -17 -8 -61 -12 -27 -40 -63 -60 -80 -36 -29
-43 -31 -119 -30 -44 0 -89 -3 -99 -7 -13 -5 -17 -4 -13 3 4 6 -2 13 -13 16
-10 3 -21 0 -23 -6 -2 -6 -24 -4 -63 7 -32 10 -65 20 -71 22 -7 2 -39 55 -70
119 -32 63 -60 115 -63 115 -3 0 -24 -36 -45 -80 -22 -44 -43 -80 -46 -80 -4
0 -11 6 -17 13 -11 13 2 107 17 116 4 4 11 16 15 29 4 12 12 20 17 17 5 -4 9
-1 9 4 0 22 -37 10 -50 -16 l-14 -28 -4 28 c-5 41 -23 32 -20 -10 3 -36 1 -38
-29 -41 -29 -3 -34 1 -53 37 -16 32 -26 41 -46 41 -21 0 -25 -4 -21 -20 6 -23
-3 -26 -23 -7 -8 6 -6 2 4 -10 11 -13 15 -23 9 -23 -11 0 -41 30 -44 45 -1 6
-20 12 -43 13 l-41 4 63 -62 c35 -34 62 -63 60 -65 -9 -9 -208 60 -204 71 2 6
0 17 -5 25 -7 11 -9 9 -9 -8 0 -27 -1 -27 -46 -8 -23 9 -33 19 -28 26 4 7 3 9
-4 5 -6 -3 -13 -2 -17 4 -3 5 -41 10 -83 10 -72 0 -78 -2 -79 -21 -2 -21 -20
-49 -33 -49 -4 0 -27 16 -51 35 -40 31 -50 35 -106 35 -55 0 -63 -2 -63 -19z
m775 -22 c9 -17 14 -33 11 -36 -4 -4 -36 49 -36 62 0 13 11 2 25 -26z m-672
-14 c101 -68 102 -69 88 -103 -12 -28 -45 -59 -118 -110 l-31 -22 5 77 c5 74
0 101 -32 176 -12 29 31 21 88 -18z m1628 -17 c-6 -18 -19 -43 -29 -55 l-17
-23 0 24 c0 13 4 22 8 19 5 -3 8 1 6 8 -4 32 1 50 13 43 8 -5 9 -2 5 10 -4 10
-3 15 3 11 6 -3 10 0 11 7 0 10 2 10 6 1 2 -7 0 -27 -6 -45z m-1511 -25 c0 -7
-39 17 -46 28 -3 6 5 3 20 -6 14 -10 26 -19 26 -22z m264 27 c19 -7 26 -17 26
-35 0 -14 5 -25 11 -25 6 0 8 9 4 20 -9 27 9 25 120 -14 54 -19 89 -36 88 -44
-2 -6 3 -12 11 -12 8 0 18 -5 22 -11 4 -8 -1 -9 -16 -4 -15 5 -20 4 -16 -4 4
-6 16 -11 27 -11 11 0 22 -8 25 -17 3 -10 8 -25 11 -33 20 -51 12 -110 -13
-110 -9 0 -30 6 -47 14 -18 8 -41 17 -52 21 -19 6 -18 8 9 31 16 14 32 22 35
17 3 -4 16 2 28 15 l23 22 -33 -2 c-18 -1 -46 -14 -65 -30 -18 -15 -40 -28
-50 -28 -13 0 -14 2 -4 9 18 11 -12 25 -48 22 -20 -2 -22 0 -10 8 12 9 9 11
-12 11 -16 0 -28 6 -28 13 0 6 -14 38 -30 70 -17 31 -28 63 -24 69 4 6 3 8 -3
5 -6 -4 -15 5 -21 18 -13 27 -7 30 32 15z m404 -63 c5 -24 -15 -21 -21 4 -3
13 -1 19 6 16 7 -2 13 -11 15 -20z m1233 4 c0 -12 2 -12 8 3 4 11 10 15 13 10
4 -5 -14 -51 -38 -103 -41 -86 -46 -93 -69 -88 -14 2 -28 1 -30 -3 -9 -14 -79
-10 -120 7 -108 45 -100 95 25 159 41 21 83 29 157 30 42 1 53 -2 54 -15z
m-1246 -158 c-2 -7 0 -13 5 -13 6 0 5 -10 -2 -25 -6 -13 -15 -22 -19 -19 -14
8 -27 70 -22 99 l6 26 18 -28 c11 -15 17 -34 14 -40z m-45 47 c0 -5 -2 -10 -4
-10 -3 0 -8 5 -11 10 -3 6 -1 10 4 10 6 0 11 -4 11 -10z m846 -66 c-3 -9 -6
-18 -6 -20 0 -2 -9 -4 -20 -4 -25 0 -26 16 -2 29 25 15 35 13 28 -5z m37 -4
c-3 -11 -9 -20 -14 -20 -10 0 -12 24 -2 33 13 13 21 7 16 -13z m112 -1 c11
-17 0 -20 -21 -4 -17 13 -17 14 -2 15 9 0 20 -5 23 -11z m-986 -41 c1 -5 -3
-8 -9 -8 -5 0 -10 12 -9 28 0 24 1 25 9 7 5 -11 9 -23 9 -27z m-226 -10 c27
-7 56 -20 65 -28 9 -8 29 -21 44 -29 23 -12 25 -17 17 -34 -6 -11 -19 -22 -30
-24 -10 -3 -17 -9 -14 -13 3 -4 -13 -19 -34 -33 l-38 -25 -61 91 c-33 51 -65
101 -71 113 -10 21 -9 21 32 8 23 -7 64 -18 90 -26z m-83 -68 c28 -43 50 -81
48 -84 -2 -2 5 -13 15 -24 15 -16 16 -23 6 -39 -16 -24 -174 -164 -207 -183
-14 -8 -34 -24 -44 -35 -9 -11 -17 -16 -18 -12 0 14 41 62 53 62 16 0 65 105
83 177 10 36 14 90 12 139 -2 43 -2 79 -1 79 1 0 25 -36 53 -80z m715 48 c14
-6 25 -15 25 -20 0 -5 4 -7 10 -3 5 3 21 3 35 -1 19 -5 25 -13 25 -33 0 -19 3
-22 9 -12 5 7 14 11 20 7 13 -8 -8 -46 -25 -46 -7 0 -14 -9 -17 -20 -3 -11
-10 -20 -16 -20 -6 0 -7 7 -4 17 4 11 3 14 -6 9 -7 -5 -10 -14 -7 -22 4 -9 -4
-18 -20 -24 -28 -11 -41 -3 -64 39 l-12 24 -12 -22 -12 -22 -28 22 c-15 12
-30 19 -33 15 -3 -3 2 -8 11 -12 21 -8 38 -48 29 -70 -5 -15 -7 -15 -15 0 -5
9 -6 21 -2 28 4 6 3 8 -3 5 -12 -7 -24 14 -28 51 -3 21 0 22 71 22 41 0 74 2
74 5 0 3 -9 23 -20 45 -28 56 -28 58 15 38z m168 -29 c-15 -15 -27 -19 -40
-14 -17 8 -17 8 1 13 15 3 16 6 5 13 -10 6 -3 9 21 9 l34 0 -21 -21z m205 8
c23 -2 31 -17 10 -17 -9 0 -8 -3 2 -10 11 -7 8 -11 -15 -20 -17 -7 -46 -14
-65 -16 -32 -4 -30 -2 15 15 72 28 41 25 -43 -3 -40 -14 -72 -21 -72 -15 0 5
7 9 15 9 8 0 15 5 15 12 0 6 10 22 22 36 19 19 29 22 58 17 19 -3 45 -7 58 -8z
m99 7 c-3 -3 -12 -4 -19 -1 -8 3 -5 6 6 6 11 1 17 -2 13 -5z m286 -20 c-3 -8
-9 -11 -14 -8 -5 3 -6 -1 -4 -9 6 -15 -73 -177 -104 -213 -22 -25 -41 -31 -41
-13 0 5 -4 8 -10 4 -5 -3 -7 -12 -3 -20 3 -8 1 -15 -3 -15 -5 0 -20 -3 -33 -7
l-24 -6 31 58 c32 58 35 89 5 50 -15 -19 -15 -19 -8 5 4 14 13 36 20 50 12 22
14 23 20 8 4 -10 12 -18 17 -18 6 0 7 7 4 16 -3 9 -3 21 1 27 4 7 9 21 10 32
4 24 25 38 35 22 6 -9 8 -9 8 1 0 7 13 18 30 23 16 6 28 14 25 19 -2 4 6 8 19
8 17 0 23 -5 19 -14z m-283 2 c0 -2 -9 -6 -20 -9 -11 -3 -18 -1 -14 4 5 9 34
13 34 5z m80 -16 c-8 -5 -17 -7 -19 -4 -3 3 1 9 9 14 8 5 17 7 19 4 3 -3 -1
-9 -9 -14z m-27 -11 c5 -20 -11 -55 -38 -85 -13 -14 -76 -91 -103 -124 -16
-19 -23 -22 -32 -13 -10 9 -6 29 14 89 38 110 50 129 88 141 51 17 65 15 71
-8z m77 -30 c0 -6 -4 -7 -10 -4 -5 3 -10 11 -10 16 0 6 5 7 10 4 6 -3 10 -11
10 -16z m-1044 -4 c4 -8 13 -15 21 -15 16 0 78 -58 70 -66 -2 -3 -34 -2 -71 2
-52 5 -69 11 -77 26 -9 16 -6 25 12 44 26 28 37 30 45 9z m820 3 c-2 -7 -15
-46 -27 -86 l-22 -73 -26 33 c-14 18 -34 41 -43 50 -31 31 -25 40 42 63 77 28
83 29 76 13z m-746 -8 c0 -5 -2 -10 -4 -10 -3 0 -8 5 -11 10 -3 6 -1 10 4 10
6 0 11 -4 11 -10z m138 -12 c2 -9 -4 -28 -14 -43 -16 -25 -17 -25 -43 -9 -31
21 -50 44 -51 62 0 21 104 12 108 -10z m492 13 c0 -5 -9 -11 -20 -14 -11 -3
-20 -1 -20 3 0 5 8 11 18 13 9 3 18 5 20 6 1 0 2 -3 2 -8z m-440 -41 c0 -5 -7
-10 -16 -10 -8 0 -12 5 -9 10 3 6 10 10 16 10 5 0 9 -4 9 -10z m711 -4 c-7 -8
-8 -16 -3 -18 11 -4 -22 -143 -38 -163 -7 -8 -10 -15 -6 -15 5 0 -19 -57 -30
-69 -6 -7 -59 63 -59 79 -1 8 -4 20 -7 26 -4 6 7 27 23 47 25 30 34 35 49 27
27 -14 30 -13 29 13 0 12 -3 16 -6 10 -2 -7 -9 -13 -14 -13 -18 0 -8 20 29 54
38 37 53 47 33 22z m-1048 -10 c7 -19 -1 -26 -30 -26 -22 0 -22 1 -5 19 21 24
28 25 35 7z m757 -18 c20 -28 20 -30 3 -15 -11 10 -24 17 -29 16 -5 -1 -25 0
-44 1 l-35 2 30 13 c43 20 49 19 75 -17z m-399 -21 c19 -15 30 -65 15 -70 -9
-4 -37 13 -85 49 -2 2 -1 10 2 19 7 18 45 19 68 2z m194 3 c-3 -5 -13 -10 -21
-10 -8 0 -12 5 -9 10 3 6 13 10 21 10 8 0 12 -4 9 -10z m-420 -6 c27 -5 36
-13 45 -39 10 -29 8 -40 -14 -84 -14 -27 -37 -62 -50 -76 -26 -28 -51 -26 -41
5 4 11 -1 20 -11 24 -15 6 -15 4 -3 -11 13 -16 12 -17 -3 -4 -10 7 -16 17 -13
21 3 4 -2 13 -10 20 -26 22 -94 105 -97 120 -5 23 123 38 197 24z m629 -15
c17 -12 40 -33 50 -47 17 -22 18 -30 7 -71 -14 -53 -60 -109 -73 -89 -6 10 -8
10 -8 -1 0 -8 -8 -23 -17 -34 -10 -11 -12 -17 -4 -12 8 4 17 2 22 -6 7 -11 9
-9 9 7 0 21 26 51 36 42 5 -6 -30 -103 -46 -128 -8 -12 -10 -12 -10 5 0 32
-62 153 -114 223 -39 52 -44 65 -34 81 32 52 127 68 182 30z m-469 -45 c39
-26 38 -42 -5 -64 -22 -11 -44 -20 -50 -20 -13 0 -13 56 0 81 13 23 23 24 55
3z m56 -71 c-12 -42 -74 -163 -83 -163 -4 0 -8 10 -8 23 0 18 -2 19 -11 7 -7
-11 -8 -4 -4 25 10 60 12 65 37 65 18 0 20 2 8 10 -13 8 -12 11 5 24 11 9 26
13 32 11 7 -2 12 -1 12 3 -2 14 1 22 10 22 6 0 6 -11 2 -27z m293 -73 c37 -70
43 -90 26 -90 -10 0 -33 42 -75 136 -22 50 -23 55 -6 40 11 -10 35 -48 55 -86z
m216 80 c0 -5 -2 -10 -4 -10 -3 0 -8 5 -11 10 -3 6 -1 10 4 10 6 0 11 -4 11
-10z m600 8 c0 -2 -11 -39 -25 -83 -16 -56 -24 -71 -24 -50 -1 17 -4 54 -7 83
l-7 52 32 0 c17 0 31 -1 31 -2z m-380 -38 c-23 -32 -40 -32 -40 1 0 16 5 19
20 14 11 -4 20 -2 20 4 0 6 5 11 11 11 6 0 1 -14 -11 -30z m-180 -9 c0 -3 14
-21 30 -38 30 -31 30 -34 16 -62 -9 -16 -44 -66 -78 -111 -35 -44 -75 -96 -89
-115 -54 -70 -53 9 1 152 22 59 40 114 40 122 1 9 8 27 16 41 12 19 14 20 10
5 -5 -18 -4 -18 10 2 14 19 44 22 44 4z m131 -38 c-5 -11 -17 -25 -25 -33 -21
-17 -21 1 0 42 10 20 19 27 26 20 7 -7 6 -16 -1 -29z m-811 -53 c6 -22 8 -45
5 -50 -3 -5 -1 -11 5 -15 13 -8 13 -38 -2 -70 -15 -34 -24 -32 -38 11 -10 30
-10 38 1 45 11 7 11 9 -3 9 -9 0 -19 -6 -21 -12 -3 -7 -6 -3 -6 9 -1 12 2 29
5 37 5 14 9 14 23 4 15 -12 15 -11 0 7 -12 14 -14 26 -8 43 13 33 27 27 39
-18z m1187 -52 c-3 -8 -6 -5 -6 6 -1 11 2 17 5 13 3 -3 4 -12 1 -19z m-1280
-56 c-1 -32 2 -102 5 -157 6 -82 4 -102 -8 -116 -10 -11 -12 -19 -5 -24 6 -3
11 -18 11 -32 0 -25 0 -26 -20 -8 -11 10 -19 20 -17 22 2 2 -37 43 -86 92
l-91 89 32 27 c18 15 29 31 26 36 -3 5 -2 8 3 7 4 -1 24 12 43 30 30 28 33 46
4 25 -5 -5 9 11 32 34 56 57 74 50 71 -25z m567 47 c-3 -6 0 -15 7 -20 7 -4
10 -11 6 -16 -9 -8 -27 15 -27 35 0 6 5 12 11 12 5 0 7 -5 3 -11z m-524 -47
c0 -5 16 -34 34 -65 19 -32 35 -61 36 -65 0 -4 8 -7 17 -7 9 0 18 -6 21 -14 3
-8 0 -11 -7 -7 -16 11 -13 -5 8 -40 11 -18 23 -54 26 -80 4 -27 18 -102 31
-166 27 -130 29 -154 14 -163 -11 -7 -40 24 -62 65 -7 14 -23 33 -34 42 -12
10 -24 32 -28 50 -5 26 -9 30 -16 18 -9 -13 -11 -13 -19 0 -5 8 -19 26 -30 39
-18 21 -21 32 -14 70 4 25 6 110 6 189 -1 84 2 142 7 142 6 0 10 -4 10 -8z
m90 -93 c7 -11 9 -23 6 -26 -8 -9 -36 17 -36 33 0 21 18 17 30 -7z m141 11 c6
-4 10 -10 10 -14 -3 -23 0 -26 18 -17 14 8 29 4 65 -19 25 -16 45 -33 44 -37
0 -5 2 -15 5 -23 16 -40 37 -127 37 -155 0 -31 -104 -255 -119 -255 -9 0 -31
45 -31 65 0 8 -4 15 -10 15 -5 0 -10 8 -11 18 0 11 -5 7 -14 -12 l-13 -30 -5
30 c-4 16 -9 50 -13 76 -3 26 -9 46 -13 43 -4 -2 -5 10 -3 27 3 21 1 29 -7 24
-7 -5 -9 3 -5 26 4 21 2 28 -3 21 -6 -8 -9 14 -9 57 1 39 -2 70 -6 70 -5 0 -8
10 -8 23 0 18 -2 19 -11 7 -9 -12 -10 -12 -5 3 3 10 6 30 6 43 0 23 3 25 45
23 25 -2 50 -6 56 -9z m123 -12 c11 -44 7 -48 -29 -27 -37 22 -43 34 -22 42
27 11 45 6 51 -15z m95 -28 c17 -27 33 -50 36 -50 7 0 0 13 -27 52 -11 16 -16
32 -13 38 6 10 95 15 95 5 0 -10 -62 -135 -66 -135 -17 0 -94 64 -99 83 -4 12
-9 30 -11 40 -4 13 1 17 24 17 25 0 35 -8 61 -50z m-332 18 c-3 -8 -6 -5 -6 6
-1 11 2 17 5 13 3 -3 4 -12 1 -19z m-401 -63 c-9 -14 -23 -37 -32 -52 l-16
-28 21 27 c12 14 29 36 39 48 l18 22 71 -74 c130 -135 133 -139 129 -193 -3
-44 -2 -46 9 -25 7 13 11 31 8 39 -2 9 23 -13 56 -49 33 -36 61 -71 61 -77 0
-7 4 -13 8 -13 14 0 55 -62 58 -87 3 -28 -6 -29 -37 -4 -13 10 -57 35 -97 55
-65 33 -71 38 -62 56 12 23 6 40 -16 40 -8 0 -14 -9 -14 -20 0 -27 -6 -26 -94
16 -45 21 -73 40 -69 47 4 7 0 8 -12 3 -23 -8 -86 11 -102 32 -8 9 -13 11 -13
4 0 -9 -10 -8 -37 2 -21 7 -67 22 -103 32 -84 23 -91 30 -42 45 23 6 39 15 37
19 -3 4 8 13 24 20 25 10 34 9 58 -7 15 -10 33 -25 40 -33 7 -8 13 -10 13 -5
0 6 -13 22 -30 37 -16 14 -30 24 -30 20 0 -3 -3 -2 -7 1 -3 4 2 14 13 22 26
20 39 19 23 -2 -7 -10 1 -3 19 15 17 17 38 32 47 32 9 0 13 5 10 10 -3 6 5 14
18 19 14 6 28 15 32 20 3 6 9 11 12 11 3 0 -2 -11 -11 -25z m740 -60 c-1 -5
-5 -15 -9 -22 -4 -6 -3 -13 2 -15 5 -1 1 -18 -8 -37 l-18 -34 -16 66 c-25 97
-24 102 17 75 18 -12 33 -27 32 -33z m755 -51 c4 -21 9 -61 13 -89 l6 -50 -19
50 c-23 65 -33 137 -18 132 7 -2 15 -21 18 -43z m-1267 -1419 c-18 -44 -18
-57 2 -25 13 23 14 5 11 -175 l-2 -200 -31 -59 -31 -59 -47 67 c-27 36 -46 73
-43 81 4 9 1 12 -7 9 -8 -3 -38 33 -80 97 l-66 102 123 69 c67 38 135 82 152
98 16 17 31 30 32 30 1 0 -5 -16 -13 -35z m-314 -156 c0 -7 -202 -120 -207
-116 -1 2 28 27 65 55 38 28 79 63 92 77 23 24 25 25 37 9 7 -10 13 -21 13
-25z"/>
<path d="M1513 3510 c-34 -14 -28 -21 7 -9 17 6 30 13 30 15 0 6 -12 4 -37 -6z"/>
<path d="M1885 3459 c-4 -6 -5 -12 -2 -15 2 -3 7 2 10 11 7 17 1 20 -8 4z"/>
<path d="M1675 3230 c26 -11 35 -12 35 -2 0 4 -12 8 -27 9 -24 1 -25 1 -8 -7z"/>
<path d="M810 2781 c0 -6 4 -13 10 -16 6 -3 7 1 4 9 -7 18 -14 21 -14 7z"/>
<path d="M880 2663 c0 -5 5 -15 10 -23 8 -12 10 -11 10 8 0 12 -4 22 -10 22
-5 0 -10 -3 -10 -7z"/>
<path d="M1110 2728 c0 -16 5 -28 10 -28 6 0 10 5 10 11 0 6 9 1 20 -12 10
-13 19 -20 20 -16 0 4 -13 22 -30 40 l-30 32 0 -27z"/>
<path d="M1270 2690 c-9 -6 -10 -10 -3 -10 6 0 15 5 18 10 8 12 4 12 -15 0z"/>
<path d="M638 2708 c6 -6 18 -8 28 -6 14 3 12 5 -9 10 -19 3 -25 2 -19 -4z"/>
<path d="M416 2695 c-11 -8 -15 -15 -9 -15 6 0 16 7 23 15 16 19 11 19 -14 0z"/>
<path d="M747 2656 c-4 -10 0 -12 14 -9 10 3 16 9 13 14 -8 13 -21 11 -27 -5z"/>
<path d="M485 2650 c-3 -5 -1 -10 4 -10 6 0 11 5 11 10 0 6 -2 10 -4 10 -3 0
-8 -4 -11 -10z"/>
<path d="M720 2619 c0 -5 5 -7 10 -4 6 3 10 8 10 11 0 2 -4 4 -10 4 -5 0 -10
-5 -10 -11z"/>
<path d="M900 2520 c6 -11 13 -20 16 -20 2 0 0 9 -6 20 -6 11 -13 20 -16 20
-2 0 0 -9 6 -20z"/>
<path d="M890 2456 c0 -2 7 -9 15 -16 13 -11 14 -10 9 4 -5 14 -24 23 -24 12z"/>
<path d="M990 2416 c24 -25 46 -46 48 -46 8 0 -71 85 -82 89 -6 2 9 -17 34
-43z"/>
<path d="M806 1215 c-9 -26 -7 -32 5 -12 6 10 9 21 6 23 -2 3 -7 -2 -11 -11z"/>
<path d="M1826 3925 c-9 -26 -7 -32 5 -12 6 10 9 21 6 23 -2 3 -7 -2 -11 -11z"/>
<path d="M2750 3930 l-25 -8 25 0 c14 -1 43 3 65 7 l40 9 -40 0 c-22 0 -51 -4
-65 -8z"/>
<path d="M2155 3920 c-3 -5 -2 -10 4 -10 5 0 13 5 16 10 3 6 2 10 -4 10 -5 0
-13 -4 -16 -10z"/>
<path d="M2440 3915 c-7 -8 -8 -15 -2 -15 5 0 15 7 22 15 7 8 8 15 2 15 -5 0
-15 -7 -22 -15z"/>
<path d="M1126 3895 c4 -8 11 -15 16 -15 6 0 5 6 -2 15 -7 8 -14 15 -16 15 -2
0 -1 -7 2 -15z"/>
<path d="M2818 3833 c7 -3 16 -2 19 1 4 3 -2 6 -13 5 -11 0 -14 -3 -6 -6z"/>
<path d="M2733 3803 c9 -2 25 -2 35 0 9 3 1 5 -18 5 -19 0 -27 -2 -17 -5z"/>
<path d="M2803 3793 c9 -2 23 -2 30 0 6 3 -1 5 -18 5 -16 0 -22 -2 -12 -5z"/>
<path d="M2880 3790 c-17 -5 -19 -8 -7 -9 9 -1 17 -5 17 -11 0 -5 24 -10 53
-10 49 1 51 2 27 14 -38 20 -62 25 -90 16z"/>
<path d="M2699 3603 c-13 -16 -12 -17 4 -4 16 13 21 21 13 21 -2 0 -10 -8 -17
-17z"/>
<path d="M215 3590 c-10 -11 -15 -20 -12 -20 4 0 16 9 27 20 11 11 16 20 12
20 -5 0 -17 -9 -27 -20z"/>
<path d="M118 3573 c7 -3 16 -2 19 1 4 3 -2 6 -13 5 -11 0 -14 -3 -6 -6z"/>
<path d="M2638 3573 c7 -3 16 -2 19 1 4 3 -2 6 -13 5 -11 0 -14 -3 -6 -6z"/>
<path d="M2665 3551 c-3 -6 3 -9 14 -8 11 0 17 5 15 9 -7 11 -22 10 -29 -1z"/>
<path d="M2717 3533 c-12 -11 -8 -23 7 -23 8 0 16 7 20 15 5 15 -14 21 -27 8z"/>
<path d="M35 3417 c38 -33 38 -35 26 -65 -8 -18 -17 -32 -21 -32 -5 0 -15 19
-23 43 l-15 42 -1 -34 c-1 -18 4 -51 11 -73 9 -29 9 -41 0 -50 -7 -7 -12 -46
-12 -100 l0 -88 88 -1 c48 0 99 -2 115 -4 15 -2 27 0 27 5 0 5 -25 57 -55 115
-30 59 -53 111 -49 116 3 5 1 9 -4 9 -10 0 -42 64 -42 85 0 8 -15 25 -33 39
-49 37 -57 32 -12 -7z"/>
<path d="M2866 3344 c-10 -25 2 -34 46 -34 l41 0 -37 25 c-44 30 -42 29 -50 9z"/>
<path d="M2365 3150 c-3 -6 1 -7 9 -4 18 7 21 14 7 14 -6 0 -13 -4 -16 -10z"/>
<path d="M2311 3120 c-30 -26 -14 -26 19 0 14 11 21 20 15 19 -5 0 -21 -9 -34
-19z"/>
<path d="M780 3120 c0 -5 -10 -10 -22 -10 -19 0 -20 -2 -8 -10 23 -15 37 -12
43 10 3 11 1 20 -4 20 -5 0 -9 -4 -9 -10z"/>
<path d="M1832 3085 c0 -16 2 -22 5 -12 2 9 2 23 0 30 -3 6 -5 -1 -5 -18z"/>
<path d="M368 3075 c-17 -23 -17 -23 7 -11 25 11 31 21 18 29 -5 3 -16 -5 -25
-18z"/>
<path d="M2632 3074 c10 -10 20 -16 22 -13 3 3 -5 11 -17 18 -21 13 -21 12 -5
-5z"/>
<path d="M646 3062 c-2 -4 4 -13 14 -20 16 -10 18 -8 17 8 -1 20 -21 27 -31
12z"/>
<path d="M2076 3024 c-10 -25 -7 -84 4 -84 6 0 10 23 10 50 0 52 -4 61 -14 34z"/>
<path d="M560 3020 c-8 -5 -10 -10 -5 -10 6 0 17 5 25 10 8 5 11 10 5 10 -5 0
-17 -5 -25 -10z"/>
<path d="M283 2993 c9 -2 23 -2 30 0 6 3 -1 5 -18 5 -16 0 -22 -2 -12 -5z"/>
<path d="M393 2993 c9 -2 23 -2 30 0 6 3 -1 5 -18 5 -16 0 -22 -2 -12 -5z"/>
<path d="M1990 2990 c8 -5 20 -10 25 -10 6 0 3 5 -5 10 -8 5 -19 10 -25 10 -5
0 -3 -5 5 -10z"/>
<path d="M2599 2983 c-13 -16 -12 -17 4 -4 16 13 21 21 13 21 -2 0 -10 -8 -17
-17z"/>
<path d="M2555 2950 c-10 -11 -14 -20 -9 -20 5 0 15 9 22 20 7 11 11 20 9 20
-2 0 -12 -9 -22 -20z"/>
<path d="M2790 2950 c0 -5 5 -10 10 -10 6 0 10 5 10 10 0 6 -4 10 -10 10 -5 0
-10 -4 -10 -10z"/>
<path d="M2092 2890 c0 -14 2 -19 5 -12 2 6 2 18 0 25 -3 6 -5 1 -5 -13z"/>
<path d="M3608 2883 c7 -3 16 -2 19 1 4 3 -2 6 -13 5 -11 0 -14 -3 -6 -6z"/>
<path d="M156 2864 c-5 -12 -2 -15 10 -10 8 3 18 6 20 6 3 0 2 5 -1 10 -9 15
-22 12 -29 -6z"/>
<path d="M2750 2842 c0 -13 8 -21 25 -24 14 -3 25 -1 25 3 0 5 7 9 15 9 8 0
15 5 15 10 0 6 -8 10 -17 10 -10 0 -28 3 -40 6 -18 5 -23 2 -23 -14z"/>
<path d="M482 2830 c7 -11 16 -20 20 -20 5 0 3 9 -4 20 -7 11 -16 20 -20 20
-5 0 -3 -9 4 -20z"/>
<path d="M3168 2843 c6 -2 18 -2 25 0 6 3 1 5 -13 5 -14 0 -19 -2 -12 -5z"/>
<path d="M3095 2830 c-25 -11 1 -11 35 0 20 6 21 8 5 8 -11 0 -29 -3 -40 -8z"/>
<path d="M2708 2813 c6 -2 18 -2 25 0 6 3 1 5 -13 5 -14 0 -19 -2 -12 -5z"/>
<path d="M243 2760 c0 -30 2 -43 4 -27 2 15 2 39 0 55 -2 15 -4 2 -4 -28z"/>
<path d="M2236 2801 c-3 -4 6 -6 19 -3 14 2 25 6 25 8 0 8 -39 4 -44 -5z"/>
<path d="M1517 2793 c-13 -12 -7 -33 8 -33 8 0 15 5 15 10 0 6 -5 10 -11 10
-5 0 -7 5 -4 10 7 11 2 13 -8 3z"/>
<path d="M3258 2687 c-68 -45 -175 -123 -238 -173 -63 -49 -135 -103 -160
-118 -49 -31 -200 -154 -200 -163 0 -3 7 -3 15 1 12 4 13 2 6 -12 -5 -9 -18
-26 -28 -37 -33 -36 -73 -93 -73 -104 0 -6 -4 -11 -9 -11 -5 0 -15 -16 -22
-35 -7 -19 -17 -35 -21 -35 -4 0 -8 -7 -8 -15 0 -19 -30 -79 -36 -73 -2 3 9
47 25 99 27 89 63 208 81 274 21 72 96 286 126 358 18 42 30 77 28 77 -13 0
-79 -168 -134 -338 l-61 -189 -42 -11 -42 -11 42 4 41 5 -10 -33 c-6 -17 -13
-39 -16 -47 -3 -8 -6 -20 -7 -26 -2 -6 -11 -38 -21 -70 -10 -33 -18 -61 -19
-64 -1 -3 -5 -20 -9 -37 -7 -29 -26 -47 -26 -25 0 4 -12 21 -26 37 -20 24 -19
20 6 -17 l31 -48 -42 -132 c-22 -73 -43 -135 -46 -138 -3 -3 -11 4 -19 14 -12
17 -14 17 -20 3 -10 -28 -21 -19 -28 24 -4 23 -9 39 -12 36 -4 -3 -1 -29 6
-57 15 -63 8 -73 -19 -29 -23 38 -28 28 -6 -11 26 -45 16 -45 -30 0 -56 55
-59 48 -5 -11 22 -24 40 -47 40 -52 0 -4 -25 -57 -55 -117 l-55 -110 102 -1
c130 -1 232 2 236 6 2 1 -15 40 -38 85 l-42 83 59 -6 c126 -14 153 -20 345
-76 112 -33 376 -92 405 -90 10 0 -40 13 -112 29 -71 15 -182 42 -245 59 -232
65 -307 82 -381 88 l-76 6 -21 43 -22 44 31 92 c17 51 35 98 39 103 4 6 11 25
15 43 3 17 11 32 16 32 9 0 59 -73 59 -87 0 -5 13 -19 27 -33 l28 -25 -19 30
c-10 17 -34 52 -53 78 -27 39 -33 55 -28 78 4 16 11 29 17 29 6 0 9 3 5 6 -6
7 80 177 113 225 11 15 20 30 20 35 0 18 98 123 172 183 148 120 167 135 265
212 54 42 146 108 206 148 97 65 117 81 102 81 -3 0 -60 -37 -127 -83z"/>
<path d="M1563 2736 c0 -8 9 -17 20 -20 18 -4 18 -4 1 15 -21 23 -21 23 -21 5z"/>
<path d="M2577 2739 c7 -7 15 -10 18 -7 3 3 -2 9 -12 12 -14 6 -15 5 -6 -5z"/>
<path d="M2625 2719 c-8 -26 -9 -25 45 -32 l45 -6 -35 29 c-42 35 -47 36 -55
9z"/>
<path d="M1660 2719 c0 -5 -12 -7 -27 -4 -27 5 -27 5 -5 -6 12 -7 22 -16 22
-21 0 -4 23 -8 52 -8 28 0 48 3 45 7 -15 14 -87 41 -87 32z"/>
<path d="M1810 2721 c0 -5 11 -18 23 -28 13 -10 26 -25 30 -33 5 -13 6 -13 6
1 1 9 -12 28 -29 42 -16 15 -30 23 -30 18z"/>
<path d="M2346 2721 c-3 -4 6 -7 20 -5 35 3 43 14 11 14 -14 0 -28 -4 -31 -9z"/>
<path d="M2825 2700 c-3 -6 1 -7 9 -4 18 7 21 14 7 14 -6 0 -13 -4 -16 -10z"/>
<path d="M2290 2677 c66 -45 90 -59 90 -55 0 9 -98 78 -111 78 -7 0 2 -11 21
-23z"/>
<path d="M1576 2605 c4 -8 11 -15 16 -15 6 0 5 6 -2 15 -7 8 -14 15 -16 15 -2
0 -1 -7 2 -15z"/>
<path d="M2427 2603 c-15 -14 -6 -31 21 -36 15 -3 35 -9 45 -13 11 -4 6 6 -13
25 -32 32 -42 36 -53 24z"/>
<path d="M3400 2603 c-71 -11 -131 -25 -127 -29 2 -3 26 1 53 7 27 6 123 15
214 19 l165 7 -140 0 c-77 0 -151 -2 -165 -4z"/>
<path d="M3731 2596 c2 -2 36 -6 74 -8 40 -3 61 -2 50 3 -19 7 -132 13 -124 5z"/>
<path d="M2102 2540 c0 -8 4 -26 8 -40 6 -20 8 -21 8 -5 0 11 -3 29 -8 40 -5
12 -8 14 -8 5z"/>
<path d="M2629 2533 c-13 -16 -12 -17 4 -4 16 13 21 21 13 21 -2 0 -10 -8 -17
-17z"/>
<path d="M429 2530 c-9 -5 -16 -25 -17 -52 l-3 -43 26 38 c27 40 24 74 -6 57z"/>
<path d="M1366 2503 c9 -35 33 -93 38 -93 3 0 -4 27 -16 60 -20 62 -34 81 -22
33z"/>
<path d="M511 2495 c-1 -11 -4 -31 -7 -45 -5 -22 -4 -23 6 -7 6 10 9 30 7 45
-3 18 -5 20 -6 7z"/>
<path d="M1543 2481 c0 -11 5 -18 9 -15 4 3 5 11 1 19 -7 21 -12 19 -10 -4z"/>
<path d="M2541 2470 c-13 -11 -19 -20 -14 -20 6 0 18 9 28 20 23 25 17 25 -14
0z"/>
<path d="M0 2373 l0 -113 55 0 c30 0 55 2 55 5 0 3 -16 37 -35 76 -20 38 -33
75 -29 82 4 7 3 8 -1 4 -5 -4 -17 7 -27 25 l-17 33 -1 -112z"/>
<path d="M2340 2465 c-8 -9 -8 -15 -2 -15 12 0 26 19 19 26 -2 2 -10 -2 -17
-11z"/>
<path d="M1467 2433 c-20 -16 -51 -38 -69 -50 -18 -13 -28 -23 -22 -23 20 0
158 99 138 100 -6 0 -27 -12 -47 -27z"/>
<path d="M738 2413 c7 -3 16 -2 19 1 4 3 -2 6 -13 5 -11 0 -14 -3 -6 -6z"/>
<path d="M778 2413 c7 -3 16 -2 19 1 4 3 -2 6 -13 5 -11 0 -14 -3 -6 -6z"/>
<path d="M1510 2404 c0 -8 -4 -12 -10 -9 -5 3 -10 2 -10 -3 0 -6 7 -12 15 -16
11 -4 15 1 15 19 0 14 -2 25 -5 25 -3 0 -5 -7 -5 -16z"/>
<path d="M625 2394 c-22 -8 -44 -19 -49 -24 -5 -5 13 -1 40 9 27 10 56 21 64
24 13 5 13 5 0 6 -8 0 -33 -7 -55 -15z"/>
<path d="M810 2406 c0 -2 16 -6 35 -8 19 -2 35 0 35 4 0 4 -16 8 -35 8 -19 0
-35 -2 -35 -4z"/>
<path d="M2271 2381 c-8 -6 -9 -11 -3 -15 6 -3 14 -1 17 5 9 14 2 20 -14 10z"/>
<path d="M2385 2360 c-3 -6 1 -7 9 -4 18 7 21 14 7 14 -6 0 -13 -4 -16 -10z"/>
<path d="M535 2350 c-3 -5 -15 -10 -25 -10 -10 0 -22 -5 -26 -11 -4 -8 1 -9
16 -4 15 5 26 2 32 -6 8 -11 9 -11 5 1 -2 8 3 20 12 27 10 8 11 12 4 13 -6 0
-15 -4 -18 -10z"/>
<path d="M1460 2351 c0 -6 5 -13 10 -16 6 -3 10 1 10 9 0 9 -4 16 -10 16 -5 0
-10 -4 -10 -9z"/>
<path d="M910 2318 c0 -7 12 -14 26 -14 28 -2 28 -1 -3 15 -18 9 -23 9 -23 -1z"/>
<path d="M1510 2266 c0 -19 3 -37 8 -40 4 -2 6 13 4 35 -5 48 -12 51 -12 5z"/>
<path d="M120 2276 c0 -2 9 -6 20 -9 11 -3 20 -1 20 4 0 5 -9 9 -20 9 -11 0
-20 -2 -20 -4z"/>
<path d="M220 2263 c0 -12 3 -14 8 -6 4 6 25 13 47 16 40 4 40 4 -7 5 -40 2
-48 -1 -48 -15z"/>
<path d="M178 2263 c7 -3 16 -2 19 1 4 3 -2 6 -13 5 -11 0 -14 -3 -6 -6z"/>
<path d="M470 2260 c0 -5 9 -10 21 -10 11 0 17 5 14 10 -3 6 -13 10 -21 10 -8
0 -14 -4 -14 -10z"/>
<path d="M556 2241 c-4 -5 3 -7 14 -4 23 6 26 13 6 13 -8 0 -17 -4 -20 -9z"/>
<path d="M1780 2223 c0 -6 -17 -14 -37 -17 -21 -2 9 -2 67 0 58 2 117 4 133 4
15 0 27 5 27 11 0 6 -11 8 -27 5 -80 -15 -146 -17 -154 -4 -6 9 -9 9 -9 1z"/>
<path d="M474 2208 c-3 -4 27 -8 67 -8 40 0 70 2 67 5 -8 9 -129 12 -134 3z"/>
<path d="M1650 2201 c0 -6 4 -13 10 -16 6 -3 7 1 4 9 -7 18 -14 21 -14 7z"/>
<path d="M765 2153 c6 -6 28 -13 49 -16 26 -4 36 -3 29 4 -5 5 -27 12 -49 16
-26 4 -36 2 -29 -4z"/>
<path d="M3037 2045 c-26 -52 -47 -97 -47 -100 0 -3 43 -5 95 -5 58 0 95 4 95
10 0 11 -88 190 -93 190 -2 0 -24 -43 -50 -95z"/>
<path d="M1690 2100 c6 -11 13 -20 16 -20 2 0 0 9 -6 20 -6 11 -13 20 -16 20
-2 0 0 -9 6 -20z"/>
<path d="M1450 2106 c0 -2 7 -7 16 -10 8 -3 12 -2 9 4 -6 10 -25 14 -25 6z"/>
<path d="M1490 2090 c0 -5 5 -10 11 -10 5 0 7 5 4 10 -3 6 -8 10 -11 10 -2 0
-4 -4 -4 -10z"/>
<path d="M50 2069 c0 -5 5 -7 10 -4 6 3 10 8 10 11 0 2 -4 4 -10 4 -5 0 -10
-5 -10 -11z"/>
<path d="M75 2038 c6 -16 4 -20 -8 -15 -8 3 -18 0 -20 -7 -4 -9 2 -12 17 -11
13 2 23 -3 23 -9 0 -7 13 -32 30 -57 33 -47 77 -132 99 -189 8 -19 12 -24 10
-11 -8 38 8 14 70 -107 31 -61 59 -110 61 -108 3 2 -3 18 -11 35 -22 41 -21
44 14 37 19 -3 29 -2 25 4 -3 6 -13 10 -21 10 -11 0 -14 6 -9 23 5 19 4 20 -5
5 -19 -30 -36 -20 -61 34 -26 56 -110 206 -139 248 -9 14 -29 51 -45 83 -28
58 -42 75 -30 35z"/>
<path d="M1800 2046 c0 -2 8 -10 18 -17 15 -13 16 -12 3 4 -13 16 -21 21 -21
13z"/>
<path d="M991 2024 c0 -11 3 -14 6 -6 3 7 2 16 -1 19 -3 4 -6 -2 -5 -13z"/>
<path d="M1451 2014 c0 -11 3 -14 6 -6 3 7 2 16 -1 19 -3 4 -6 -2 -5 -13z"/>
<path d="M1893 2003 c-15 -5 -17 -23 -4 -23 5 0 11 7 15 15 3 8 4 15 3 14 -1
0 -8 -3 -14 -6z"/>
<path d="M1736 1975 c4 -9 0 -15 -10 -15 -9 0 -16 -4 -16 -10 0 -15 12 -12 45
11 17 12 22 19 13 15 -10 -3 -18 -1 -18 4 0 6 -4 10 -10 10 -5 0 -7 -7 -4 -15z"/>
<path d="M948 1945 l-16 -35 27 1 c16 1 19 3 9 6 -14 3 -15 9 -7 30 15 39 5
37 -13 -2z"/>
<path d="M538 1963 c7 -3 16 -2 19 1 4 3 -2 6 -13 5 -11 0 -14 -3 -6 -6z"/>
<path d="M1170 1928 l-45 -40 45 33 c25 18 47 34 49 36 2 2 2 5 0 7 -2 2 -24
-14 -49 -36z"/>
<path d="M1845 1939 c25 -16 64 -24 50 -10 -6 5 -23 12 -40 16 -27 6 -28 5
-10 -6z"/>
<path d="M1481 1924 c0 -11 3 -14 6 -6 3 7 2 16 -1 19 -3 4 -6 -2 -5 -13z"/>
<path d="M2226 1927 c-14 -5 -26 -12 -26 -17 0 -11 26 -5 85 20 18 8 17 9 -6
7 -15 0 -38 -5 -53 -10z"/>
<path d="M1870 1912 c0 -5 10 -17 21 -28 22 -19 22 -19 10 3 -12 24 -31 39
-31 25z"/>
<path d="M1970 1916 c0 -2 7 -9 15 -16 9 -7 15 -8 15 -2 0 5 -7 12 -15 16 -8
3 -15 4 -15 2z"/>
<path d="M1470 1890 c-13 -8 -12 -10 3 -10 9 0 17 5 17 10 0 12 -1 12 -20 0z"/>
<path d="M2232 1870 c0 -32 25 -132 26 -105 1 11 -5 45 -13 75 -7 30 -13 44
-13 30z"/>
<path d="M1089 1853 c-13 -16 -12 -17 4 -4 9 7 17 15 17 17 0 8 -8 3 -21 -13z"/>
<path d="M1680 1853 c0 -13 27 -49 33 -43 3 3 -3 16 -14 29 -10 13 -19 19 -19
14z"/>
<path d="M1537 1805 c10 -78 24 -110 18 -41 -3 32 -10 66 -15 75 -6 11 -7 0
-3 -34z"/>
<path d="M710 1795 c24 -8 46 -12 48 -10 7 7 -47 25 -71 24 -13 0 -4 -6 23
-14z"/>
<path d="M1730 1786 c0 -2 8 -10 18 -17 15 -13 16 -12 3 4 -13 16 -21 21 -21
13z"/>
<path d="M1059 1733 l-24 -28 28 24 c25 23 32 31 24 31 -2 0 -14 -12 -28 -27z"/>
<path d="M1765 1740 c3 -5 8 -10 11 -10 2 0 4 5 4 10 0 6 -5 10 -11 10 -5 0
-7 -4 -4 -10z"/>
<path d="M2261 1724 c0 -11 3 -14 6 -6 3 7 2 16 -1 19 -3 4 -6 -2 -5 -13z"/>
<path d="M643 1723 c-12 -2 -24 -10 -26 -17 -4 -11 1 -11 24 1 16 8 29 16 29
19 0 2 -1 3 -2 3 -2 -1 -13 -4 -25 -6z"/>
<path d="M2271 1684 c0 -11 3 -14 6 -6 3 7 2 16 -1 19 -3 4 -6 -2 -5 -13z"/>
<path d="M1549 1676 c8 -10 9 -16 1 -21 -5 -3 -10 -12 -10 -18 0 -8 4 -7 9 2
7 11 12 3 21 -28 6 -24 10 -44 8 -45 -2 -1 -14 -8 -28 -14 -14 -7 -17 -10 -7
-7 10 3 39 5 65 5 32 0 43 3 35 11 -5 5 -20 11 -31 12 -16 1 -24 10 -28 34 -3
18 -6 36 -6 40 0 15 -19 43 -30 43 -7 0 -7 -4 1 -14z"/>
<path d="M241 1664 c0 -11 3 -14 6 -6 3 7 2 16 -1 19 -3 4 -6 -2 -5 -13z"/>
<path d="M1945 1620 c3 -5 8 -10 11 -10 2 0 4 5 4 10 0 6 -5 10 -11 10 -5 0
-7 -4 -4 -10z"/>
<path d="M1831 1564 c0 -11 3 -14 6 -6 3 7 2 16 -1 19 -3 4 -6 -2 -5 -13z"/>
<path d="M1134 1528 c-32 -23 -74 -56 -92 -73 -19 -16 -40 -34 -48 -38 -8 -4
-14 -13 -14 -19 0 -7 15 2 33 18 17 17 64 55 102 84 83 63 91 70 84 70 -3 0
-32 -19 -65 -42z"/>
<path d="M3025 1550 c-8 -13 15 -13 35 0 12 8 11 10 -7 10 -12 0 -25 -4 -28
-10z"/>
<path d="M1711 1534 c13 -16 29 -19 29 -5 0 5 -9 11 -21 14 -16 4 -18 3 -8 -9z"/>
<path d="M1621 1538 c2 -2 18 -16 35 -31 23 -21 34 -25 39 -16 5 7 4 10 -2 6
-6 -4 -18 2 -27 12 -13 15 -14 20 -4 24 7 3 0 6 -16 6 -16 1 -27 0 -25 -1z"/>
<path d="M1511 1514 c0 -11 3 -14 6 -6 3 7 2 16 -1 19 -3 4 -6 -2 -5 -13z"/>
<path d="M1351 1476 c2 -2 18 -6 34 -10 22 -5 26 -4 15 4 -14 9 -59 15 -49 6z"/>
<path d="M1175 1460 c-3 -6 1 -7 9 -4 18 7 21 14 7 14 -6 0 -13 -4 -16 -10z"/>
<path d="M1740 1425 c13 -14 26 -25 28 -25 3 0 -5 11 -18 25 -13 14 -26 25
-28 25 -3 0 5 -11 18 -25z"/>
<path d="M3263 1263 c9 -2 23 -2 30 0 6 3 -1 5 -18 5 -16 0 -22 -2 -12 -5z"/>
<path d="M1971 1190 c74 -90 74 -90 61 -65 -5 11 -36 47 -67 80 l-56 60 62
-75z"/>
<path d="M2080 978 c0 -16 5 -28 10 -28 13 0 13 20 0 40 -8 12 -10 9 -10 -12z"/>
<path d="M2082 910 c0 -19 2 -27 5 -17 2 9 2 25 0 35 -3 9 -5 1 -5 -18z"/>
<path d="M666 865 c-9 -26 -7 -32 5 -12 6 10 9 21 6 23 -2 3 -7 -2 -11 -11z"/>
<path d="M2092 835 c0 -16 2 -22 5 -12 2 9 2 23 0 30 -3 6 -5 -1 -5 -18z"/>
<path d="M2104 655 c0 -82 2 -115 3 -73 4 75 5 77 31 81 l27 4 -27 2 c-26 1
-27 3 -31 69 -2 37 -3 0 -3 -83z"/>
<path d="M2520 670 c-35 -37 -41 -53 -10 -23 19 18 32 34 29 36 -2 2 -11 -4
-19 -13z"/>
<path d="M1160 600 c8 -5 22 -9 30 -9 10 0 8 3 -5 9 -27 12 -43 12 -25 0z"/>
<path d="M2070 460 c-19 -6 -12 -8 29 -9 30 -1 52 1 50 3 -11 9 -57 13 -79 6z"/>
<path d="M2340 419 c-30 -22 -23 -25 15 -5 14 8 23 16 18 19 -5 3 -20 -3 -33
-14z"/>
<path d="M53 265 c0 -27 2 -38 4 -22 2 15 2 37 0 50 -2 12 -4 0 -4 -28z"/>
<path d="M2803 263 l-13 -26 25 23 c29 27 30 30 13 30 -7 0 -19 -12 -25 -27z"/>
<path d="M1420 80 c-8 -5 -10 -10 -5 -10 6 0 17 5 25 10 8 5 11 10 5 10 -5 0
-17 -5 -25 -10z"/>
</g>
</svg>
